<svg xmlns="http://www.w3.org/2000/svg" viewBox="0 0 355 209">
  <defs>
    <style>
      .cls-1 {
        fill: #220a38;
      }
    </style>
  </defs>
  <g id="Homepage">
    <g id="Desktop-4" data-name="Desktop">
      <g>
        <g>
          <ellipse class="cls-1" cx="198.83181" cy="94.98299" rx="14.73744" ry="14.74147" transform="translate(103.34083 293.57133) rotate(-89.85352)"/>
          <path class="cls-1" d="M259.71006-.24977H130.35064A95.32156,95.32156,0,0,0,40.81142,127.67935,33.99812,33.99812,0,1,0,83.4991,177.97986a94.8689,94.8689,0,0,0,46.85154,12.29732H259.71006a95.26348,95.26348,0,1,0,0-190.52695ZM293.0987,71.10234a23.88057,23.88057,0,1,0,0,47.76113v28.67869H104.98719V118.86347a23.88057,23.88057,0,1,0,0-47.76113V42.42386H293.0987Z"/>
          <path class="cls-1" d="M242.02379,109.72042A14.73744,14.73744,0,1,0,227.28242,94.983,14.73945,14.73945,0,0,0,242.02379,109.72042Z"/>
          <ellipse class="cls-1" cx="156.06202" cy="94.98299" rx="14.74153" ry="14.73744"/>
        </g>
        <circle class="cls-1" cx="16.40559" cy="195.44807" r="13.94719" transform="translate(-179.086 211.32659) rotate(-89.84551)"/>
      </g>
    </g>
  </g>
</svg>
