<svg xmlns="http://www.w3.org/2000/svg" viewBox="0 0 169.99877 95.26777">
  <defs>
    <style>
      .cls-1 {
        fill: #fff;
      }

      .cls-2 {
        fill: #69448e;
      }
    </style>
  </defs>
  <g id="Layer_2" data-name="Layer 2">
    <g id="Electric_Purple" data-name="Electric Purple">
      <g>
        <path class="cls-1" d="M126.64341,0H65.60352A43.48281,43.48281,0,0,0,22.24816,43.35536v.00007a42.99565,42.99565,0,0,0,1.644,11.75777A17.39545,17.39545,0,1,0,45.90974,81.93508a42.94743,42.94743,0,0,0,19.69378,4.7757h61.03989a43.4828,43.4828,0,0,0,43.35536-43.35535v-.00007A43.48281,43.48281,0,0,0,126.64341,0Z"/>
        <circle class="cls-1" cx="8.27175" cy="86.99601" r="8.27175"/>
        <path class="cls-2" d="M129.32264,43.07016A10.63694,10.63694,0,0,1,139.7064,32.43993V19.9663H52.48284V32.43993c.08715-.0021.17194-.01312.2596-.01312a10.64335,10.64335,0,0,1,0,21.2867c-.08766,0-.17245-.011-.2596-.01312V66.174H139.7064V53.70039A10.637,10.637,0,0,1,129.32264,43.07016ZM76.10589,50.59838a7.52823,7.52823,0,1,1,7.52822-7.52822A7.52822,7.52822,0,0,1,76.10589,50.59838Zm20.24833,0a7.52823,7.52823,0,1,1,7.52822-7.52822A7.52823,7.52823,0,0,1,96.35422,50.59838Zm20.24832,0a7.52823,7.52823,0,1,1,7.52823-7.52822A7.52822,7.52822,0,0,1,116.60254,50.59838Z"/>
      </g>
    </g>
  </g>
</svg>
