<svg xmlns="http://www.w3.org/2000/svg" viewBox="0 0 51.57409 51.57409">
  <defs>
    <style>
      .cls-1 {
        fill: #220038;
      }

      .cls-2 {
        fill: #fff;
      }
    </style>
  </defs>
  <g id="Layer_2" data-name="Layer 2">
    <g id="Spotify">
      <g id="Mobile">
        <g>
          <circle class="cls-1" cx="25.78704" cy="25.78704" r="25.78704"/>
          <path class="cls-2" d="M36.13991,38.05433a1.68465,1.68465,0,0,1-.87143-.24271c-10.15491-6.10829-22.19239-2.57535-22.31269-2.539a1.69383,1.69383,0,0,1-.98722-3.24061c.54918-.16752,13.57267-4.025,25.04608,2.8767a1.69406,1.69406,0,0,1-.87474,3.14558Z"/>
          <path class="cls-2" d="M39.05827,31.09972a1.99312,1.99312,0,0,1-.9961-.26677,33.93684,33.93684,0,0,0-25.7363-3.02136,2.0018,2.0018,0,1,1-1.29835-3.78723A37.59431,37.59431,0,0,1,40.058,27.36227a2.002,2.002,0,0,1-.9997,3.73745Z"/>
          <path class="cls-2" d="M42.22685,23.208a2.45053,2.45053,0,0,1-1.14346-.283c-14.70561-7.72363-29.8085-3.09925-29.95948-3.05158a2.46376,2.46376,0,1,1-1.48331-4.699c.69579-.21955,17.23072-5.27957,33.73392,3.38812A2.46408,2.46408,0,0,1,42.22685,23.208Z"/>
        </g>
      </g>
    </g>
  </g>
</svg>
